# xmcd
#
# Track frame offsets:
#	150
#	25126
#	48404
#	71744
#	96232
#	118869
#	143994
#	169895
#	195100
#	220421
#	245746
#	266673
# Disc length: 3872 seconds
# Revision: 1
# Processed by: cddbd v1.5.1PL2 Copyright (c) Steve Scherf et al.
#
# Submitted via: libkcddb 0.10
#
DISCID=b60f1e0c
DTITLE=Lyle Ronglien - Lyle's Loops Vol. 3 All Blues Jam Tracks
DYEAR=1900
DGENRE=Blues
TTITLE0=Blues Shuffle in Cm
TTITLE1=Blues in D
TTITLE2=Blues Shuffle in A
TTITLE3=Bb Blues
TTITLE4=Bm Blues
TTITLE5=Slow Blues in C
TTITLE6=Slow Blues in Em
TTITLE7=Blues in C
TTITLE8=Blues Shuffle in G
TTITLE9=Blues Shuffle in E
TTITLE10=Blues in C
TTITLE11=Blues in G
EXTD=http://www.theguitar.net
EXTT0=
EXTT1=
EXTT2=
EXTT3=
EXTT4=
EXTT5=
EXTT6=
EXTT7=
EXTT8=
EXTT9=
EXTT10=
EXTT11=
PLAYORDER=
